# Blender 4.3.2
# www.blender.org
mtllib park.mtl
o Cube
v -25.162153 -0.097871 -26.574108
v -6.993514 0.097871 -7.385948
v -25.162153 -0.097871 26.574108
v -6.993514 0.097871 7.385948
v 25.162153 -0.097871 -26.574108
v 6.993514 0.097871 -7.385948
v 25.162153 -0.097871 26.574108
v 6.993514 0.097871 7.385948
v 24.752422 0.097871 -26.141384
v 24.752422 0.097871 26.141384
v -24.752422 0.097871 -26.141384
v -24.752422 0.097871 26.141384
v 21.559881 0.097871 -22.769695
v 21.559881 0.097871 22.769695
v -21.559881 0.097871 -22.769695
v -21.559881 0.097871 22.769695
v 8.180917 0.097871 -8.639980
v 8.180917 0.097871 8.639980
v -8.180917 0.097871 -8.639980
v -8.180917 0.097871 8.639980
v 24.752422 0.563354 -26.141384
v 24.752422 0.563354 26.141384
v -24.752422 0.563354 -26.141384
v -24.752422 0.563354 26.141384
v 21.559881 0.563354 -22.769695
v 21.559881 0.563354 22.769695
v -21.559881 0.563354 -22.769695
v -21.559881 0.563354 22.769695
v 8.180917 0.543801 -8.639980
v 8.180917 0.543801 8.639980
v -8.180917 0.543801 -8.639980
v -8.180917 0.543801 8.639980
v 7.496332 0.543801 -7.916982
v 7.496332 0.543801 7.916982
v -7.496332 0.543801 -7.916982
v -7.496332 0.543801 7.916982
v 18.884089 0.321093 -19.943752
v 16.208296 0.679664 -17.117811
v 13.532503 0.679664 -14.291868
v 10.856709 0.321093 -11.465924
v 10.856709 0.321093 11.465923
v 13.532502 0.679664 14.291866
v 16.208294 0.679664 17.117809
v 18.884087 0.321093 19.943752
v -18.884089 0.321093 -19.943752
v -16.208296 0.679664 -17.117811
v -13.532503 0.679664 -14.291868
v -10.856709 0.321093 -11.465924
v -10.856709 0.321093 11.465923
v -13.532502 0.679664 14.291866
v -16.208294 0.679664 17.117809
v -18.884087 0.321093 19.943752
vn -0.0000 -1.0000 -0.0000
vn -0.0000 0.9111 0.4121
vn 0.4311 0.9023 -0.0000
vn -0.0000 1.0000 -0.0000
vn -0.4311 0.9023 -0.0000
vn -0.0000 0.9111 -0.4121
vn -0.0000 -0.0000 1.0000
vn -0.0000 -0.0000 -1.0000
vn -1.0000 -0.0000 -0.0000
vn 0.0831 0.9965 -0.0000
vn -0.0000 0.9969 -0.0787
vn -0.0000 0.9969 0.0787
vn -0.0831 0.9965 -0.0000
vn -0.0000 0.7658 -0.6431
vn -0.0000 0.7658 0.6431
vn 1.0000 -0.0000 -0.0000
vn -0.6635 0.7482 -0.0000
vn 0.6635 0.7482 -0.0000
vn 0.1328 0.9911 -0.0000
vn -0.1328 0.9911 -0.0000
vn -0.0000 0.9920 -0.1259
vn -0.0000 0.9920 0.1259
vt 0.625000 0.500000
vt 0.875000 0.500000
vt 0.875000 0.750000
vt 0.625000 0.750000
vt 2.065813 2.027303
vt 0.625000 1.000000
vt 0.375000 1.000000
vt 0.375000 0.000000
vt 0.625000 0.000000
vt 0.625000 0.250000
vt 0.375000 0.250000
vt 0.010690 -0.027820
vt 1.082045 -0.027820
vt 1.082045 1.043536
vt 0.010689 1.043536
vt 2.065813 -1.011589
vt 0.375000 0.500000
vt -0.777103 -0.815613
vt -0.777103 1.831326
vt 0.141122 0.733878
vt 0.358878 0.733878
vt -0.612847 -0.651357
vt -0.612847 1.667071
vt 1.705581 -0.651357
vt 1.869837 -0.815613
vt 1.705581 1.667072
vt 1.869837 1.831327
vt 0.086199 0.968026
vt 1.006535 0.968026
vt 0.208686 0.583686
vt 0.291314 0.583686
vt 0.291314 0.666314
vt 1.006535 0.047690
vt 0.086199 0.047690
vt -0.973079 2.027303
vt -0.973079 -1.011589
vt 0.044175 1.010049
vt 0.044175 0.005666
vt 1.048559 0.005666
vt 1.048559 1.010049
vt 0.201290 0.852934
vt 0.201290 0.162781
vt 1.212815 -0.158590
vt 1.212815 1.174305
vt 1.377070 -0.322846
vt 1.377070 1.338561
vt 1.541326 -0.487101
vt 1.541326 1.502816
vt -0.120080 1.174305
vt -0.284336 1.338561
vt -0.448592 1.502816
vt -0.120080 -0.158590
vt -0.284336 -0.322846
vt -0.448591 -0.487101
s 0
usemtl Material
f 1/1/1 5/2/1 7/3/1 3/4/1
f 37/22/10 44/23/10 14/19/10 13/18/10
f 45/24/11 37/22/11 13/18/11 15/25/11
f 44/23/12 52/26/12 16/27/12 14/19/12
f 52/26/13 45/24/13 15/25/13 16/27/13
f 20/40/10 19/39/10 48/43/10 49/44/10
f 49/44/19 48/43/19 47/45/19 50/46/19
f 50/46/4 47/45/4 46/47/4 51/48/4
f 51/48/20 46/47/20 45/24/20 52/26/20
f 18/37/11 20/40/11 49/44/11 41/49/11
f 41/49/21 49/44/21 50/46/21 42/50/21
f 42/50/4 50/46/4 51/48/4 43/51/4
f 43/51/22 51/48/22 52/26/22 44/23/22
f 19/39/12 17/38/12 40/52/12 48/43/12
f 48/43/22 40/52/22 39/53/22 47/45/22
f 47/45/4 39/53/4 38/54/4 46/47/4
f 46/47/21 38/54/21 37/22/21 45/24/21
f 17/38/13 18/37/13 41/49/13 40/52/13
f 40/52/20 41/49/20 42/50/20 39/53/20
f 39/53/4 42/50/4 43/51/4 38/54/4
f 38/54/19 43/51/19 44/23/19 37/22/19
usemtl Material.001
f 12/5/2 3/4/2 7/6/2 10/7/2
f 10/8/3 7/9/3 5/10/3 9/11/3
f 6/12/4 2/13/4 4/14/4 8/15/4
f 11/16/5 1/1/5 3/4/5 12/5/5
f 9/11/6 5/10/6 1/1/6 11/16/6
f 12/5/7 10/7/7 22/7/7 24/5/7
f 9/11/8 11/17/8 23/17/8 21/11/8
f 13/18/9 14/19/9 26/19/9 25/18/9
f 14/20/8 16/21/8 28/21/8 26/20/8
f 8/28/14 4/29/14 36/29/14 34/28/14
f 17/30/8 19/31/8 31/31/8 29/30/8
f 19/31/9 20/32/9 32/32/9 31/31/9
f 2/33/15 6/34/15 33/34/15 35/33/15
f 25/18/4 26/19/4 22/35/4 21/36/4
f 27/25/4 25/18/4 21/36/4 23/16/4
f 26/19/4 28/27/4 24/5/4 22/35/4
f 28/27/4 27/25/4 23/16/4 24/5/4
f 16/27/16 15/25/16 27/25/16 28/27/16
f 15/25/7 13/18/7 25/18/7 27/25/7
f 10/8/16 9/11/16 21/11/16 22/8/16
f 11/16/9 12/5/9 24/5/9 23/16/9
f 33/34/4 34/28/4 30/37/4 29/38/4
f 35/33/4 33/34/4 29/38/4 31/39/4
f 34/28/4 36/29/4 32/40/4 30/37/4
f 36/29/4 35/33/4 31/39/4 32/40/4
f 6/34/17 8/28/17 34/28/17 33/34/17
f 20/40/7 18/37/7 30/37/7 32/40/7
f 4/29/18 2/33/18 35/33/18 36/29/18
f 18/41/16 17/42/16 29/42/16 30/41/16
