# Blender 4.3.2
# www.blender.org
mtllib room.mtl
o Plane
v -16.223129 0.000000 5.737926
v 16.223129 0.000000 5.737926
v -16.223129 0.000000 -5.737926
v 16.223129 0.000000 -5.737926
v -16.223129 0.000000 -5.737926
v -16.223129 0.000000 5.737926
v 16.223129 0.000000 5.737926
v 16.223129 0.000000 -5.737926
v -16.223129 0.000000 -5.737926
v -16.223129 0.000000 5.737926
v 16.223129 0.000000 5.737926
v 16.223129 0.000000 -5.737926
v -16.223129 0.000000 -5.737926
v -16.223129 0.000000 5.737926
v 16.223129 0.000000 5.737926
v 16.223129 0.000000 -5.737926
v -16.223129 16.376575 -5.737926
v -16.223129 16.376575 5.737926
v 16.223129 16.376575 5.737926
v 16.223129 16.376575 -5.737926
vn -0.0000 -1.0000 -0.0000
vn -0.0000 1.0000 -0.0000
vn -0.0000 -0.0000 1.0000
vn -0.0000 -0.0000 -1.0000
vn 1.0000 -0.0000 -0.0000
vt 0.000000 0.000000
vt 0.000000 1.000000
vt 1.000000 1.000000
vt 1.000000 0.000000
vt 0.310333 0.208022
vt 0.310333 0.908770
vt 0.765534 0.908770
vt 0.765534 0.208022
vt 0.154930 0.229375
vt 0.804522 0.229375
vt 0.804522 0.930123
vt 0.154930 0.930123
vt 0.147945 0.901449
vt 0.797538 0.901449
vt 0.797538 0.200701
vt 0.147945 0.200701
vt 0.884276 0.000896
vt 0.884276 1.000896
vt 0.429076 1.000896
vt 0.429076 0.000896
s 0
usemtl Material.001
f 1/1/1 3/2/1 4/3/1 2/4/1
f 7/4/2 8/3/2 12/3/2 11/4/2
f 2/4/2 4/3/2 8/3/2 7/4/2
f 3/2/2 1/1/2 6/1/2 5/2/2
f 4/3/2 3/2/2 5/2/2 8/3/2
f 1/1/2 2/4/2 7/4/2 6/1/2
f 10/5/1 9/6/1 12/7/1 11/8/1
f 5/2/2 6/1/2 10/1/2 9/2/2
f 8/3/2 5/2/2 9/2/2 12/3/2
f 6/1/2 7/4/2 11/4/2 10/1/2
f 12/3/2 9/2/2 13/2/2 16/3/2
f 10/5/2 11/8/2 15/8/2 14/5/2
f 9/2/2 10/1/2 14/1/2 13/2/2
f 16/9/3 20/10/3 17/11/3 13/12/3
f 14/13/4 18/14/4 19/15/4 15/16/4
f 13/17/5 17/18/5 18/19/5 14/20/5
f 17/6/1 20/7/1 19/8/1 18/5/1
o Cube
v 9.171761 17.390362 6.275390
v 9.171761 -1.556697 6.275390
v 9.171761 17.390362 4.975294
v 9.171761 -1.556697 4.975294
v 10.471855 17.390362 6.275390
v 10.471855 -1.556697 6.275390
v 10.471855 17.390362 4.975294
v 10.471855 -1.556697 4.975294
vn -1.0000 -0.0000 -0.0000
vn -0.0000 -0.0000 -1.0000
vn 1.0000 -0.0000 -0.0000
vn -0.0000 -0.0000 1.0000
vn -0.0000 1.0000 -0.0000
vn -0.0000 -1.0000 -0.0000
vt 0.375000 0.000000
vt 0.625000 0.000000
vt 0.625000 0.250000
vt 0.375000 0.250000
vt 0.625000 0.500000
vt 0.375000 0.500000
vt 0.625000 0.750000
vt 0.375000 0.750000
vt 0.625000 1.000000
vt 0.375000 1.000000
vt 0.125000 0.500000
vt 0.125000 0.750000
vt 0.875000 0.500000
vt 0.875000 0.750000
s 0
usemtl Material.003
f 21/21/6 23/24/6 24/23/6 22/22/6
f 23/24/7 27/26/7 28/25/7 24/23/7
f 27/26/8 25/28/8 26/27/8 28/25/8
f 25/28/9 21/30/9 22/29/9 26/27/9
f 23/31/10 21/32/10 25/28/10 27/26/10
f 28/25/11 26/27/11 22/34/11 24/33/11
o Cube.001
v 9.171761 17.390362 -5.059937
v 9.171761 -1.556697 -5.059937
v 9.171761 17.390362 -6.360033
v 9.171761 -1.556697 -6.360033
v 10.471855 17.390362 -5.059937
v 10.471855 -1.556697 -5.059937
v 10.471855 17.390362 -6.360033
v 10.471855 -1.556697 -6.360033
vn -1.0000 -0.0000 -0.0000
vn -0.0000 -0.0000 -1.0000
vn 1.0000 -0.0000 -0.0000
vn -0.0000 -0.0000 1.0000
vn -0.0000 1.0000 -0.0000
vn -0.0000 -1.0000 -0.0000
vt 0.375000 0.000000
vt 0.625000 0.000000
vt 0.625000 0.250000
vt 0.375000 0.250000
vt 0.625000 0.500000
vt 0.375000 0.500000
vt 0.625000 0.750000
vt 0.375000 0.750000
vt 0.625000 1.000000
vt 0.375000 1.000000
vt 0.125000 0.500000
vt 0.125000 0.750000
vt 0.875000 0.500000
vt 0.875000 0.750000
s 0
usemtl Material.003
f 29/35/12 31/38/12 32/37/12 30/36/12
f 31/38/13 35/40/13 36/39/13 32/37/13
f 35/40/14 33/42/14 34/41/14 36/39/14
f 33/42/15 29/44/15 30/43/15 34/41/15
f 31/45/16 29/46/16 33/42/16 35/40/16
f 36/39/17 34/41/17 30/48/17 32/47/17
o Cube.002
v -9.459367 17.390362 6.275390
v -9.459367 -1.556697 6.275390
v -9.459367 17.390362 4.975294
v -9.459367 -1.556697 4.975294
v -8.159272 17.390362 6.275390
v -8.159272 -1.556697 6.275390
v -8.159272 17.390362 4.975294
v -8.159272 -1.556697 4.975294
vn -1.0000 -0.0000 -0.0000
vn -0.0000 -0.0000 -1.0000
vn 1.0000 -0.0000 -0.0000
vn -0.0000 -0.0000 1.0000
vn -0.0000 1.0000 -0.0000
vn -0.0000 -1.0000 -0.0000
vt 0.375000 0.000000
vt 0.625000 0.000000
vt 0.625000 0.250000
vt 0.375000 0.250000
vt 0.625000 0.500000
vt 0.375000 0.500000
vt 0.625000 0.750000
vt 0.375000 0.750000
vt 0.625000 1.000000
vt 0.375000 1.000000
vt 0.125000 0.500000
vt 0.125000 0.750000
vt 0.875000 0.500000
vt 0.875000 0.750000
s 0
usemtl Material.003
f 37/49/18 39/52/18 40/51/18 38/50/18
f 39/52/19 43/54/19 44/53/19 40/51/19
f 43/54/20 41/56/20 42/55/20 44/53/20
f 41/56/21 37/58/21 38/57/21 42/55/21
f 39/59/22 37/60/22 41/56/22 43/54/22
f 44/53/23 42/55/23 38/62/23 40/61/23
o Cube.003
v -9.459367 17.390362 -5.059937
v -9.459367 -1.556697 -5.059937
v -9.459367 17.390362 -6.360033
v -9.459367 -1.556697 -6.360033
v -8.159272 17.390362 -5.059937
v -8.159272 -1.556697 -5.059937
v -8.159272 17.390362 -6.360033
v -8.159272 -1.556697 -6.360033
vn -1.0000 -0.0000 -0.0000
vn -0.0000 -0.0000 -1.0000
vn 1.0000 -0.0000 -0.0000
vn -0.0000 -0.0000 1.0000
vn -0.0000 1.0000 -0.0000
vn -0.0000 -1.0000 -0.0000
vt 0.375000 0.000000
vt 0.625000 0.000000
vt 0.625000 0.250000
vt 0.375000 0.250000
vt 0.625000 0.500000
vt 0.375000 0.500000
vt 0.625000 0.750000
vt 0.375000 0.750000
vt 0.625000 1.000000
vt 0.375000 1.000000
vt 0.125000 0.500000
vt 0.125000 0.750000
vt 0.875000 0.500000
vt 0.875000 0.750000
s 0
usemtl Material.003
f 45/63/24 47/66/24 48/65/24 46/64/24
f 47/66/25 51/68/25 52/67/25 48/65/25
f 51/68/26 49/70/26 50/69/26 52/67/26
f 49/70/27 45/72/27 46/71/27 50/69/27
f 47/73/28 45/74/28 49/70/28 51/68/28
f 52/67/29 50/69/29 46/76/29 48/75/29
