# Blender 4.3.2
# www.blender.org
mtllib sword.mtl
o Cube
v -0.137060 -0.794194 -0.081250
v -0.157918 -0.545319 -0.084459
v 0.000000 -0.709426 -0.105235
v 0.000000 -0.447878 -0.095306
v -0.181762 -0.821841 0.000000
v -0.238966 -0.595329 0.000000
v 0.000000 1.947947 -0.095306
v -0.347789 -0.915624 -0.049882
v -0.396760 -0.651196 -0.049882
v -0.347789 -0.915624 0.000000
v -0.396760 -0.651196 0.000000
v -0.503943 -1.052939 -0.049882
v -0.509705 -0.638719 -0.049882
v -0.503943 -1.052939 0.000000
v -0.509705 -0.638719 0.000000
v -0.707538 -0.779794 -0.049882
v -0.655687 -0.498082 -0.049882
v -0.707538 -0.779794 0.000000
v -0.655687 -0.498082 0.000000
v -0.781537 -0.433560 -0.049881
v -0.732566 -0.370774 -0.049882
v -0.781537 -0.433560 0.000000
v -0.732566 -0.370774 0.000000
v -0.778200 -0.260509 -0.049881
v -0.755155 -0.261096 -0.049882
v -0.778200 -0.260509 0.000000
v -0.755155 -0.261096 0.000000
v 0.000000 -0.447878 -0.142327
v -0.265273 -0.611561 -0.108049
v -0.265273 -0.611561 0.000000
v 0.000000 2.454793 0.000000
v 0.000000 -0.059442 -0.095306
v -0.392734 -0.178087 0.000000
v -0.295122 -0.178087 -0.078892
v 0.000000 0.490132 -0.095306
v -0.253896 0.373888 0.000000
v -0.156284 0.373888 -0.078892
v 0.000000 0.807105 -0.095306
v -0.341407 0.726868 0.000000
v -0.243795 0.726868 -0.078892
v 0.000000 1.271363 -0.095306
v -0.515329 1.027892 0.000000
v -0.417717 1.027892 -0.078892
v 0.000000 1.683307 -0.095306
v -0.461874 1.574265 0.000000
v -0.364262 1.574265 -0.078892
v 0.000000 2.212586 -0.095306
v -0.238757 2.139551 0.000000
v -0.141144 2.139551 -0.078892
v 0.000000 2.361014 -0.095306
v -0.112854 2.314140 0.000000
v -0.079668 2.258387 -0.078892
v -0.252703 1.856908 -0.078892
v -0.350315 1.856908 0.000000
v 0.000000 1.477335 -0.095306
v -0.390989 1.301079 -0.078892
v -0.488602 1.301079 0.000000
v 0.000000 1.039234 -0.095306
v -0.330756 0.877380 -0.078892
v -0.428368 0.877380 0.000000
v -0.297652 0.550378 0.000000
v 0.000000 0.648618 -0.095306
v -0.200039 0.550378 -0.078892
v 0.000000 0.215345 -0.095306
v -0.225703 0.097900 -0.078892
v -0.323315 0.097900 0.000000
v -0.213422 -0.841422 0.000000
v -0.213422 -0.841422 -0.108049
v 0.000000 -0.709426 -0.142327
v 0.000000 -2.353616 0.000000
v 0.000000 -1.046405 -0.105235
v -0.123119 -1.077260 0.000000
v -0.091013 -1.077260 -0.073428
v 0.000000 -1.342044 -0.105235
v -0.080673 -1.346268 0.000000
v -0.048567 -1.346268 -0.073428
v 0.000000 -1.641701 -0.105235
v -0.089951 -1.639267 0.000000
v -0.057845 -1.639267 -0.073428
v 0.000000 -1.876412 -0.105235
v -0.134226 -1.860662 0.000000
v -0.102120 -1.860662 -0.073428
v 0.000000 -1.983807 -0.105235
v -0.238272 -1.951412 0.000000
v -0.179986 -1.951412 -0.073428
v 0.000000 -2.107136 -0.105235
v -0.229379 -2.096380 0.000000
v -0.171093 -2.096380 -0.073428
v 0.000000 -2.181500 -0.105235
v -0.104363 -2.179066 0.000000
v -0.072257 -2.179066 -0.073428
v 0.000000 -2.272468 -0.105235
v -0.045948 -2.271698 0.000000
v -0.033856 -2.271901 -0.081798
v 0.000000 -2.353616 -0.105235
v -0.022256 -2.334537 0.000000
v -0.022256 -2.334537 -0.073428
v 0.137060 -0.794194 -0.081250
v 0.157918 -0.545319 -0.084459
v 0.181762 -0.821841 0.000000
v 0.238966 -0.595329 0.000000
v 0.347789 -0.915624 -0.049882
v 0.396760 -0.651196 -0.049882
v 0.347789 -0.915624 0.000000
v 0.396760 -0.651196 0.000000
v 0.503943 -1.052939 -0.049882
v 0.509705 -0.638719 -0.049882
v 0.503943 -1.052939 0.000000
v 0.509705 -0.638719 0.000000
v 0.707538 -0.779794 -0.049882
v 0.655687 -0.498082 -0.049882
v 0.707538 -0.779794 0.000000
v 0.655687 -0.498082 0.000000
v 0.781537 -0.433560 -0.049881
v 0.732566 -0.370774 -0.049882
v 0.781537 -0.433560 0.000000
v 0.732566 -0.370774 0.000000
v 0.778200 -0.260509 -0.049881
v 0.755155 -0.261096 -0.049882
v 0.778200 -0.260509 0.000000
v 0.755155 -0.261096 0.000000
v 0.265273 -0.611561 -0.108049
v 0.265273 -0.611561 0.000000
v 0.392734 -0.178087 0.000000
v 0.295122 -0.178087 -0.078892
v 0.253896 0.373888 0.000000
v 0.156284 0.373888 -0.078892
v 0.341407 0.726868 0.000000
v 0.243795 0.726868 -0.078892
v 0.515329 1.027892 0.000000
v 0.417717 1.027892 -0.078892
v 0.461874 1.574265 0.000000
v 0.364262 1.574265 -0.078892
v 0.238757 2.139551 0.000000
v 0.141144 2.139551 -0.078892
v 0.112854 2.314140 0.000000
v 0.079668 2.258387 -0.078892
v 0.252703 1.856908 -0.078892
v 0.350315 1.856908 0.000000
v 0.390989 1.301079 -0.078892
v 0.488602 1.301079 0.000000
v 0.330756 0.877380 -0.078892
v 0.428368 0.877380 0.000000
v 0.297652 0.550378 0.000000
v 0.200039 0.550378 -0.078892
v 0.213422 -0.841422 0.000000
v 0.213422 -0.841422 -0.108049
v 0.123119 -1.077260 0.000000
v 0.091013 -1.077260 -0.073428
v 0.080673 -1.346268 0.000000
v 0.048567 -1.346268 -0.073428
v 0.089951 -1.639267 0.000000
v 0.057845 -1.639267 -0.073428
v 0.134226 -1.860662 0.000000
v 0.102120 -1.860662 -0.073428
v 0.238272 -1.951412 0.000000
v 0.179986 -1.951412 -0.073428
v 0.229379 -2.096380 0.000000
v 0.171093 -2.096380 -0.073428
v 0.104363 -2.179066 0.000000
v 0.072257 -2.179066 -0.073428
v 0.045948 -2.271698 0.000000
v 0.033856 -2.271901 -0.081798
v 0.022256 -2.334537 0.000000
v 0.022256 -2.334537 -0.073428
v 0.194964 0.086801 -0.081698
v 0.207034 0.172121 -0.078892
v 0.159183 0.132514 -0.083730
v 0.159183 0.132514 -0.083730
v 0.304647 0.172121 0.000000
v 0.308228 0.056682 0.000000
v 0.241806 0.121622 0.000000
v -0.137060 -0.794194 0.081250
v -0.157918 -0.545319 0.084459
v 0.000000 -0.709426 0.105235
v 0.000000 -0.447878 0.095306
v 0.000000 1.947947 0.095306
v -0.347789 -0.915624 0.049882
v -0.396760 -0.651196 0.049882
v -0.503943 -1.052939 0.049882
v -0.509705 -0.638719 0.049882
v -0.707538 -0.779794 0.049882
v -0.655687 -0.498082 0.049882
v -0.781537 -0.433560 0.049881
v -0.732566 -0.370774 0.049882
v -0.778200 -0.260509 0.049881
v -0.755155 -0.261096 0.049882
v 0.000000 -0.447878 0.142327
v -0.265273 -0.611561 0.108049
v 0.000000 -0.059442 0.095306
v -0.295122 -0.178087 0.078892
v 0.000000 0.490132 0.095306
v -0.156284 0.373888 0.078892
v 0.000000 0.807105 0.095306
v -0.243795 0.726868 0.078892
v 0.000000 1.271363 0.095306
v -0.417717 1.027892 0.078892
v 0.000000 1.683307 0.095306
v -0.364262 1.574265 0.078892
v 0.000000 2.212586 0.095306
v -0.141144 2.139551 0.078892
v 0.000000 2.361014 0.095306
v -0.079668 2.258387 0.078892
v -0.252703 1.856908 0.078892
v 0.000000 1.477335 0.095306
v -0.390989 1.301079 0.078892
v 0.000000 1.039234 0.095306
v -0.330756 0.877380 0.078892
v 0.000000 0.648618 0.095306
v -0.200039 0.550378 0.078892
v 0.000000 0.215345 0.095306
v -0.225703 0.097900 0.078892
v -0.213422 -0.841422 0.108049
v 0.000000 -0.709426 0.142327
v 0.000000 -1.046405 0.105235
v -0.091013 -1.077260 0.073428
v 0.000000 -1.342044 0.105235
v -0.048567 -1.346268 0.073428
v 0.000000 -1.641701 0.105235
v -0.057845 -1.639267 0.073428
v 0.000000 -1.876412 0.105235
v -0.102120 -1.860662 0.073428
v 0.000000 -1.983807 0.105235
v -0.179986 -1.951412 0.073428
v 0.000000 -2.107136 0.105235
v -0.171093 -2.096380 0.073428
v 0.000000 -2.181500 0.105235
v -0.072257 -2.179066 0.073428
v 0.000000 -2.272468 0.105235
v -0.033856 -2.271901 0.081798
v 0.000000 -2.353616 0.105235
v -0.022256 -2.334537 0.073428
v 0.137060 -0.794194 0.081250
v 0.157918 -0.545319 0.084459
v 0.347789 -0.915624 0.049882
v 0.396760 -0.651196 0.049882
v 0.503943 -1.052939 0.049882
v 0.509705 -0.638719 0.049882
v 0.707538 -0.779794 0.049882
v 0.655687 -0.498082 0.049882
v 0.781537 -0.433560 0.049881
v 0.732566 -0.370774 0.049882
v 0.778200 -0.260509 0.049881
v 0.755155 -0.261096 0.049882
v 0.265273 -0.611561 0.108049
v 0.295122 -0.178087 0.078892
v 0.156284 0.373888 0.078892
v 0.243795 0.726868 0.078892
v 0.417717 1.027892 0.078892
v 0.364262 1.574265 0.078892
v 0.141144 2.139551 0.078892
v 0.079668 2.258387 0.078892
v 0.252703 1.856908 0.078892
v 0.390989 1.301079 0.078892
v 0.330756 0.877380 0.078892
v 0.200039 0.550378 0.078892
v 0.213422 -0.841422 0.108049
v 0.091013 -1.077260 0.073428
v 0.048567 -1.346268 0.073428
v 0.057845 -1.639267 0.073428
v 0.102120 -1.860662 0.073428
v 0.179986 -1.951412 0.073428
v 0.171093 -2.096380 0.073428
v 0.072257 -2.179066 0.073428
v 0.033856 -2.271901 0.081798
v 0.022256 -2.334537 0.073428
v 0.194964 0.086801 0.081698
v 0.207034 0.172121 0.078892
v 0.159183 0.132514 0.083730
v 0.159183 0.132514 0.083730
vn -0.6223 -0.2255 -0.7496
vn 0.4834 -0.8754 -0.0000
vn -0.8689 -0.1756 -0.4628
vn -0.1332 -0.0141 -0.9910
vn 0.6604 -0.7510 -0.0000
vn -0.3723 -0.0759 -0.9250
vn -0.2886 0.9574 -0.0000
vn -0.8018 -0.5976 -0.0000
vn 0.1098 0.9940 -0.0000
vn -0.0000 -0.0000 -1.0000
vn 0.8560 0.5169 -0.0000
vn 0.6938 0.7202 -0.0000
vn 0.9794 0.2017 -0.0000
vn -0.9779 -0.2090 -0.0000
vn 0.0255 0.9997 -0.0000
vn -0.9998 0.0193 -0.0000
vn -0.5251 0.8510 -0.0000
vn -0.6209 0.1562 -0.7682
vn -0.0585 -0.0033 -0.9983
vn -0.0701 -0.0092 -0.9975
vn -0.0927 0.0117 -0.9956
vn -0.0390 -0.0089 -0.9992
vn -0.6211 -0.1540 -0.7685
vn -0.6274 0.0614 -0.7763
vn -0.5908 -0.3414 -0.7310
vn -0.6101 0.2408 -0.7549
vn -0.0444 0.0025 -0.9990
vn -0.1789 0.0411 -0.9830
vn -0.0907 0.0185 -0.9957
vn -0.6715 0.4942 -0.5521
vn -0.6299 0.4023 -0.6643
vn -0.0569 0.0116 -0.9983
vn -0.0418 0.0023 -0.9991
vn -0.0521 -0.0118 -0.9986
vn -0.0851 -0.0111 -0.9963
vn -0.0667 0.0084 -0.9977
vn 0.5260 -0.8505 -0.0000
vn -0.4081 -0.0307 -0.9124
vn -0.2237 -0.0289 -0.9742
vn -0.5132 0.0080 -0.8582
vn -0.9068 -0.1431 -0.3965
vn -0.9012 0.1802 -0.3941
vn -0.9159 0.0290 -0.4005
vn -0.6477 0.6492 -0.3987
vn -0.3658 0.0355 -0.9300
vn -0.1790 -0.0059 -0.9838
vn -0.2061 0.0810 -0.9752
vn -0.2578 -0.1622 -0.9525
vn -0.7823 -0.0480 -0.6210
vn -0.8639 -0.4399 -0.2454
vn -0.5580 -0.7554 -0.3435
vn -0.9587 -0.2746 -0.0743
vn -0.4623 -0.0563 -0.8849
vn -0.6508 -0.7592 -0.0000
vn -0.7154 -0.0980 -0.6918
vn 0.6223 -0.2255 -0.7496
vn -0.4834 -0.8754 -0.0000
vn 0.8689 -0.1756 -0.4628
vn 0.1332 -0.0141 -0.9910
vn -0.6604 -0.7510 -0.0000
vn 0.3723 -0.0759 -0.9250
vn 0.2886 0.9574 -0.0000
vn 0.8018 -0.5976 -0.0000
vn -0.1098 0.9940 -0.0000
vn -0.8560 0.5169 -0.0000
vn -0.6938 0.7202 -0.0000
vn -0.9794 0.2017 -0.0000
vn 0.9779 -0.2090 -0.0000
vn -0.0255 0.9997 -0.0000
vn 0.9998 0.0193 -0.0000
vn 0.5251 0.8510 -0.0000
vn 0.0585 -0.0033 -0.9983
vn 0.0701 -0.0092 -0.9975
vn 0.6106 0.2214 -0.7603
vn 0.0390 -0.0089 -0.9992
vn 0.6211 -0.1540 -0.7685
vn 0.6274 0.0614 -0.7763
vn 0.5908 -0.3414 -0.7310
vn 0.6101 0.2408 -0.7549
vn 0.0444 0.0025 -0.9990
vn 0.1789 0.0411 -0.9830
vn 0.0907 0.0185 -0.9957
vn 0.6715 0.4942 -0.5521
vn 0.6299 0.4023 -0.6643
vn 0.0569 0.0116 -0.9983
vn 0.0418 0.0023 -0.9991
vn 0.0521 -0.0118 -0.9986
vn 0.0851 -0.0111 -0.9963
vn 0.6209 0.1562 -0.7682
vn 0.0652 0.0073 -0.9978
vn -0.5260 -0.8505 -0.0000
vn 0.4081 -0.0307 -0.9124
vn 0.2237 -0.0289 -0.9742
vn 0.5132 0.0080 -0.8582
vn 0.9068 -0.1431 -0.3965
vn 0.9012 0.1802 -0.3941
vn 0.9159 0.0290 -0.4005
vn 0.6477 0.6492 -0.3987
vn 0.3658 0.0355 -0.9300
vn 0.1790 -0.0059 -0.9838
vn 0.2061 0.0810 -0.9752
vn 0.2578 -0.1622 -0.9525
vn 0.7823 -0.0480 -0.6210
vn 0.8639 -0.4399 -0.2454
vn 0.5580 -0.7554 -0.3435
vn 0.9587 -0.2746 -0.0743
vn 0.4623 -0.0563 -0.8849
vn 0.6508 -0.7592 -0.0000
vn 0.7154 -0.0980 -0.6918
vn -0.0000 -1.0000 -0.0000
vn 0.6040 0.5472 -0.5795
vn 0.5154 -0.6004 -0.6115
vn 0.0931 0.0113 -0.9956
vn -0.6223 -0.2255 0.7496
vn -0.8689 -0.1756 0.4628
vn -0.1332 -0.0141 0.9910
vn -0.3723 -0.0759 0.9250
vn -0.0000 -0.0000 1.0000
vn -0.6209 0.1562 0.7682
vn -0.0585 -0.0033 0.9983
vn -0.0701 -0.0092 0.9975
vn -0.0927 0.0117 0.9956
vn -0.0390 -0.0089 0.9992
vn -0.6211 -0.1540 0.7685
vn -0.6274 0.0614 0.7763
vn -0.5908 -0.3414 0.7310
vn -0.6101 0.2408 0.7549
vn -0.0444 0.0025 0.9990
vn -0.1789 0.0411 0.9830
vn -0.0907 0.0185 0.9957
vn -0.6715 0.4942 0.5521
vn -0.6299 0.4023 0.6643
vn -0.0569 0.0116 0.9983
vn -0.0418 0.0023 0.9991
vn -0.0521 -0.0118 0.9986
vn -0.0851 -0.0111 0.9963
vn -0.0667 0.0084 0.9977
vn -0.4081 -0.0307 0.9124
vn -0.2237 -0.0289 0.9742
vn -0.5132 0.0080 0.8582
vn -0.9068 -0.1431 0.3965
vn -0.9012 0.1802 0.3941
vn -0.9159 0.0290 0.4005
vn -0.6477 0.6492 0.3987
vn -0.3658 0.0355 0.9300
vn -0.1790 -0.0059 0.9838
vn -0.2061 0.0810 0.9752
vn -0.2578 -0.1622 0.9525
vn -0.7823 -0.0480 0.6210
vn -0.8639 -0.4399 0.2454
vn -0.5580 -0.7554 0.3435
vn -0.9587 -0.2746 0.0743
vn -0.4623 -0.0563 0.8849
vn -0.7154 -0.0980 0.6918
vn 0.6223 -0.2255 0.7496
vn 0.8689 -0.1756 0.4628
vn 0.1332 -0.0141 0.9910
vn 0.3723 -0.0759 0.9250
vn 0.0585 -0.0033 0.9983
vn 0.0701 -0.0092 0.9975
vn 0.6106 0.2214 0.7603
vn 0.0390 -0.0089 0.9992
vn 0.6211 -0.1540 0.7685
vn 0.6274 0.0614 0.7763
vn 0.5908 -0.3414 0.7310
vn 0.6101 0.2408 0.7549
vn 0.0444 0.0025 0.9990
vn 0.1789 0.0411 0.9830
vn 0.0907 0.0185 0.9957
vn 0.6715 0.4942 0.5521
vn 0.6299 0.4023 0.6643
vn 0.0569 0.0116 0.9983
vn 0.0418 0.0023 0.9991
vn 0.0521 -0.0118 0.9986
vn 0.0851 -0.0111 0.9963
vn 0.6209 0.1562 0.7682
vn 0.0652 0.0073 0.9978
vn 0.4081 -0.0307 0.9124
vn 0.2237 -0.0289 0.9742
vn 0.5132 0.0080 0.8582
vn 0.9068 -0.1431 0.3965
vn 0.9012 0.1802 0.3941
vn 0.9159 0.0290 0.4005
vn 0.6477 0.6492 0.3987
vn 0.3658 0.0355 0.9300
vn 0.1790 -0.0059 0.9838
vn 0.2061 0.0810 0.9752
vn 0.2578 -0.1622 0.9525
vn 0.7823 -0.0480 0.6210
vn 0.8639 -0.4399 0.2454
vn 0.5580 -0.7554 0.3435
vn 0.9587 -0.2746 0.0743
vn 0.4623 -0.0563 0.8849
vn 0.7154 -0.0980 0.6918
vn 0.6040 0.5472 0.5795
vn 0.5154 -0.6004 0.6115
vn 0.0931 0.0113 0.9956
vt 0.362604 0.625000
vt 0.324413 0.716439
vt 0.362604 0.714946
vt 0.625000 0.625000
vt 0.625000 0.750000
vt 0.669724 0.709287
vt 0.643543 0.625000
vt 0.643543 0.708059
vt 0.375000 0.750000
vt 0.625000 0.875000
vt 0.375000 0.875000
vt 0.375000 0.625000
vt 0.250000 0.719348
vt 0.250000 0.750000
vt 0.362604 0.714946
vt 0.362604 0.714946
vt 0.362604 0.625000
vt 0.250000 0.625000
vt 0.750000 0.713052
vt 0.750000 0.750000
vt 0.671558 0.709373
vt 0.750000 0.625000
vt 0.343357 0.715699
vt 0.362604 0.714946
vt 0.329417 0.716244
s 0
usemtl Material
f 6/1/1 33/1/1 34/3/1 2/2/1
f 67/4/2 10/4/2 8/5/2 68/5/2
f 1/6/3 73/8/3 72/7/3 5/7/3
f 29/9/4 28/11/4 69/10/4 68/5/4
f 10/4/5 14/4/5 12/5/5 8/5/5
f 68/5/6 8/5/6 9/9/6 29/9/6
f 29/9/7 9/9/7 11/12/7 30/12/7
f 14/4/8 18/4/8 16/5/8 12/5/8
f 9/9/9 13/9/9 15/12/9 11/12/9
f 8/5/10 12/5/10 13/9/10 9/9/10
f 17/9/11 21/9/11 23/12/11 19/12/11
f 13/9/12 17/9/12 19/12/12 15/12/12
f 12/5/10 16/5/10 17/9/10 13/9/10
f 21/9/13 25/9/13 27/12/13 23/12/13
f 16/5/10 20/5/10 21/9/10 17/9/10
f 18/4/14 22/4/14 20/5/14 16/5/14
f 27/12/15 25/9/15 24/5/15 26/4/15
f 20/5/10 24/5/10 25/9/10 21/9/10
f 22/4/16 26/4/16 24/5/16 20/5/16
f 4/13/17 28/14/17 29/9/17 2/2/17
f 2/2/17 29/9/17 30/12/17 6/1/17
f 66/1/18 36/1/18 37/3/18 65/15/18
f 2/2/19 34/3/19 32/13/19 4/13/19
f 63/16/20 40/3/20 38/13/20 62/13/20
f 65/15/21 37/3/21 35/13/21 64/13/21
f 59/15/22 43/3/22 41/13/22 58/13/22
f 61/1/23 39/1/23 40/3/23 63/16/23
f 57/17/24 45/1/24 46/3/24 56/3/24
f 60/1/25 42/1/25 43/3/25 59/15/25
f 54/1/26 48/1/26 49/3/26 53/15/26
f 56/3/27 46/3/27 44/13/27 55/13/27
f 49/3/28 52/3/28 50/13/28 47/13/28
f 53/15/29 49/3/29 47/13/29 7/13/29
f 31/18/30 50/13/30 52/3/30 51/1/30
f 48/1/31 51/1/31 52/3/31 49/3/31
f 46/3/32 53/15/32 7/13/32 44/13/32
f 45/1/26 54/1/26 53/15/26 46/3/26
f 43/3/33 56/3/33 55/13/33 41/13/33
f 42/1/24 57/17/24 56/3/24 43/3/24
f 39/1/25 60/1/25 59/15/25 40/3/25
f 40/3/34 59/15/34 58/13/34 38/13/34
f 36/1/23 61/1/23 63/16/23 37/3/23
f 37/3/35 63/16/35 62/13/35 35/13/35
f 34/3/36 65/15/36 64/13/36 32/13/36
f 33/1/18 66/1/18 65/15/18 34/3/18
f 5/7/37 67/4/37 68/5/37 1/6/37
f 1/6/37 68/5/37 69/20/37 3/19/37
f 71/19/38 74/19/38 76/8/38 73/8/38
f 3/19/39 71/19/39 73/8/39 1/6/39
f 74/19/40 77/19/40 79/8/40 76/8/40
f 73/8/41 76/8/41 75/7/41 72/7/41
f 79/8/42 82/8/42 81/7/42 78/7/42
f 76/8/43 79/8/43 78/7/43 75/7/43
f 82/8/44 85/8/44 84/7/44 81/7/44
f 77/19/45 80/19/45 82/8/45 79/8/45
f 83/19/46 86/19/46 88/8/46 85/8/46
f 80/19/47 83/19/47 85/8/47 82/8/47
f 86/19/48 89/19/48 91/8/48 88/8/48
f 85/8/49 88/8/49 87/7/49 84/7/49
f 91/8/50 94/21/50 93/7/50 90/7/50
f 88/8/51 91/8/51 90/7/51 87/7/51
f 94/21/52 97/8/52 96/7/52 93/7/52
f 89/19/53 92/19/53 94/21/53 91/8/53
f 96/7/54 97/8/54 95/19/54 70/22/54
f 92/19/55 95/19/55 97/8/55 94/21/55
f 101/1/56 99/2/56 125/3/56 124/1/56
f 146/4/57 147/5/57 102/5/57 104/4/57
f 98/6/58 100/7/58 148/7/58 149/8/58
f 122/9/59 147/5/59 69/10/59 28/11/59
f 104/4/60 102/5/60 106/5/60 108/4/60
f 147/5/61 122/9/61 103/9/61 102/5/61
f 122/9/62 123/12/62 105/12/62 103/9/62
f 108/4/63 106/5/63 110/5/63 112/4/63
f 103/9/64 105/12/64 109/12/64 107/9/64
f 102/5/10 103/9/10 107/9/10 106/5/10
f 111/9/65 113/12/65 117/12/65 115/9/65
f 107/9/66 109/12/66 113/12/66 111/9/66
f 106/5/10 107/9/10 111/9/10 110/5/10
f 115/9/67 117/12/67 121/12/67 119/9/67
f 110/5/10 111/9/10 115/9/10 114/5/10
f 112/4/68 110/5/68 114/5/68 116/4/68
f 121/12/69 120/4/69 118/5/69 119/9/69
f 114/5/10 115/9/10 119/9/10 118/5/10
f 116/4/70 114/5/70 118/5/70 120/4/70
f 4/13/71 99/2/71 122/9/71 28/14/71
f 99/2/71 101/1/71 123/12/71 122/9/71
f 99/2/72 4/13/72 32/13/72 125/3/72
f 145/16/73 62/13/73 38/13/73 129/3/73
f 124/1/74 125/3/74 166/23/74 171/1/74
f 142/15/75 58/13/75 41/13/75 131/3/75
f 144/1/76 145/16/76 129/3/76 128/1/76
f 141/17/77 140/3/77 133/3/77 132/1/77
f 143/1/78 142/15/78 131/3/78 130/1/78
f 139/1/79 138/15/79 135/3/79 134/1/79
f 140/3/80 55/13/80 44/13/80 133/3/80
f 135/3/81 47/13/81 50/13/81 137/3/81
f 138/15/82 7/13/82 47/13/82 135/3/82
f 31/18/83 136/1/83 137/3/83 50/13/83
f 134/1/84 135/3/84 137/3/84 136/1/84
f 133/3/85 44/13/85 7/13/85 138/15/85
f 132/1/79 133/3/79 138/15/79 139/1/79
f 131/3/86 41/13/86 55/13/86 140/3/86
f 130/1/77 131/3/77 140/3/77 141/17/77
f 128/1/78 129/3/78 142/15/78 143/1/78
f 129/3/87 38/13/87 58/13/87 142/15/87
f 126/1/76 127/3/76 145/16/76 144/1/76
f 127/3/88 35/13/88 62/13/88 145/16/88
f 170/1/89 167/24/89 127/3/89 126/1/89
f 125/3/90 32/13/90 64/13/90 168/25/90 166/23/90
f 100/7/91 98/6/91 147/5/91 146/4/91
f 98/6/91 3/19/91 69/20/91 147/5/91
f 71/19/92 149/8/92 151/8/92 74/19/92
f 3/19/93 98/6/93 149/8/93 71/19/93
f 74/19/94 151/8/94 153/8/94 77/19/94
f 149/8/95 148/7/95 150/7/95 151/8/95
f 153/8/96 152/7/96 154/7/96 155/8/96
f 151/8/97 150/7/97 152/7/97 153/8/97
f 155/8/98 154/7/98 156/7/98 157/8/98
f 77/19/99 153/8/99 155/8/99 80/19/99
f 83/19/100 157/8/100 159/8/100 86/19/100
f 80/19/101 155/8/101 157/8/101 83/19/101
f 86/19/102 159/8/102 161/8/102 89/19/102
f 157/8/103 156/7/103 158/7/103 159/8/103
f 161/8/104 160/7/104 162/7/104 163/21/104
f 159/8/105 158/7/105 160/7/105 161/8/105
f 163/21/106 162/7/106 164/7/106 165/8/106
f 89/19/107 161/8/107 163/21/107 92/19/107
f 164/7/108 70/22/108 95/19/108 165/8/108
f 92/19/109 163/21/109 165/8/109 95/19/109
f 166/23/110 168/25/110 169/25/110
f 169/25/110 168/25/110 167/15/110
f 166/23/111 169/25/111 172/1/111 171/1/111
f 169/25/112 167/24/112 170/1/112 172/1/112
f 168/25/113 64/13/113 35/13/113 127/3/113 167/3/113
f 6/1/114 174/2/114 191/3/114 33/1/114
f 67/4/2 213/5/2 178/5/2 10/4/2
f 173/6/115 5/7/115 72/7/115 216/8/115
f 189/9/116 213/5/116 214/10/116 188/11/116
f 10/4/5 178/5/5 180/5/5 14/4/5
f 213/5/117 189/9/117 179/9/117 178/5/117
f 189/9/7 30/12/7 11/12/7 179/9/7
f 14/4/8 180/5/8 182/5/8 18/4/8
f 179/9/9 11/12/9 15/12/9 181/9/9
f 178/5/118 179/9/118 181/9/118 180/5/118
f 183/9/11 19/12/11 23/12/11 185/9/11
f 181/9/12 15/12/12 19/12/12 183/9/12
f 180/5/118 181/9/118 183/9/118 182/5/118
f 185/9/13 23/12/13 27/12/13 187/9/13
f 182/5/118 183/9/118 185/9/118 184/5/118
f 18/4/14 182/5/14 184/5/14 22/4/14
f 27/12/15 26/4/15 186/5/15 187/9/15
f 184/5/118 185/9/118 187/9/118 186/5/118
f 22/4/16 184/5/16 186/5/16 26/4/16
f 176/13/17 174/2/17 189/9/17 188/14/17
f 174/2/17 6/1/17 30/12/17 189/9/17
f 66/1/119 212/15/119 193/3/119 36/1/119
f 174/2/120 176/13/120 190/13/120 191/3/120
f 210/16/121 209/13/121 194/13/121 195/3/121
f 212/15/122 211/13/122 192/13/122 193/3/122
f 208/15/123 207/13/123 196/13/123 197/3/123
f 61/1/124 210/16/124 195/3/124 39/1/124
f 57/17/125 206/3/125 199/3/125 45/1/125
f 60/1/126 208/15/126 197/3/126 42/1/126
f 54/1/127 204/15/127 201/3/127 48/1/127
f 206/3/128 205/13/128 198/13/128 199/3/128
f 201/3/129 200/13/129 202/13/129 203/3/129
f 204/15/130 177/13/130 200/13/130 201/3/130
f 31/18/131 51/1/131 203/3/131 202/13/131
f 48/1/132 201/3/132 203/3/132 51/1/132
f 199/3/133 198/13/133 177/13/133 204/15/133
f 45/1/127 199/3/127 204/15/127 54/1/127
f 197/3/134 196/13/134 205/13/134 206/3/134
f 42/1/125 197/3/125 206/3/125 57/17/125
f 39/1/126 195/3/126 208/15/126 60/1/126
f 195/3/135 194/13/135 207/13/135 208/15/135
f 36/1/124 193/3/124 210/16/124 61/1/124
f 193/3/136 192/13/136 209/13/136 210/16/136
f 191/3/137 190/13/137 211/13/137 212/15/137
f 33/1/119 191/3/119 212/15/119 66/1/119
f 5/7/37 173/6/37 213/5/37 67/4/37
f 173/6/37 175/19/37 214/20/37 213/5/37
f 215/19/138 216/8/138 218/8/138 217/19/138
f 175/19/139 173/6/139 216/8/139 215/19/139
f 217/19/140 218/8/140 220/8/140 219/19/140
f 216/8/141 72/7/141 75/7/141 218/8/141
f 220/8/142 78/7/142 81/7/142 222/8/142
f 218/8/143 75/7/143 78/7/143 220/8/143
f 222/8/144 81/7/144 84/7/144 224/8/144
f 219/19/145 220/8/145 222/8/145 221/19/145
f 223/19/146 224/8/146 226/8/146 225/19/146
f 221/19/147 222/8/147 224/8/147 223/19/147
f 225/19/148 226/8/148 228/8/148 227/19/148
f 224/8/149 84/7/149 87/7/149 226/8/149
f 228/8/150 90/7/150 93/7/150 230/21/150
f 226/8/151 87/7/151 90/7/151 228/8/151
f 230/21/152 93/7/152 96/7/152 232/8/152
f 227/19/153 228/8/153 230/21/153 229/19/153
f 96/7/54 70/22/54 231/19/54 232/8/54
f 229/19/154 230/21/154 232/8/154 231/19/154
f 101/1/155 124/1/155 246/3/155 234/2/155
f 146/4/57 104/4/57 235/5/57 257/5/57
f 233/6/156 258/8/156 148/7/156 100/7/156
f 245/9/157 188/11/157 214/10/157 257/5/157
f 104/4/60 108/4/60 237/5/60 235/5/60
f 257/5/158 235/5/158 236/9/158 245/9/158
f 245/9/62 236/9/62 105/12/62 123/12/62
f 108/4/63 112/4/63 239/5/63 237/5/63
f 236/9/64 238/9/64 109/12/64 105/12/64
f 235/5/118 237/5/118 238/9/118 236/9/118
f 240/9/65 242/9/65 117/12/65 113/12/65
f 238/9/66 240/9/66 113/12/66 109/12/66
f 237/5/118 239/5/118 240/9/118 238/9/118
f 242/9/67 244/9/67 121/12/67 117/12/67
f 239/5/118 241/5/118 242/9/118 240/9/118
f 112/4/68 116/4/68 241/5/68 239/5/68
f 121/12/69 244/9/69 243/5/69 120/4/69
f 241/5/118 243/5/118 244/9/118 242/9/118
f 116/4/70 120/4/70 243/5/70 241/5/70
f 176/13/71 188/14/71 245/9/71 234/2/71
f 234/2/71 245/9/71 123/12/71 101/1/71
f 234/2/159 246/3/159 190/13/159 176/13/159
f 256/16/160 248/3/160 194/13/160 209/13/160
f 124/1/161 171/1/161 267/23/161 246/3/161
f 255/15/162 249/3/162 196/13/162 207/13/162
f 144/1/163 128/1/163 248/3/163 256/16/163
f 141/17/164 132/1/164 250/3/164 254/3/164
f 143/1/165 130/1/165 249/3/165 255/15/165
f 139/1/166 134/1/166 251/3/166 253/15/166
f 254/3/167 250/3/167 198/13/167 205/13/167
f 251/3/168 252/3/168 202/13/168 200/13/168
f 253/15/169 251/3/169 200/13/169 177/13/169
f 31/18/170 202/13/170 252/3/170 136/1/170
f 134/1/171 136/1/171 252/3/171 251/3/171
f 250/3/172 253/15/172 177/13/172 198/13/172
f 132/1/166 139/1/166 253/15/166 250/3/166
f 249/3/173 254/3/173 205/13/173 196/13/173
f 130/1/164 141/17/164 254/3/164 249/3/164
f 128/1/165 143/1/165 255/15/165 248/3/165
f 248/3/174 255/15/174 207/13/174 194/13/174
f 126/1/163 144/1/163 256/16/163 247/3/163
f 247/3/175 256/16/175 209/13/175 192/13/175
f 170/1/176 126/1/176 247/3/176 268/24/176
f 246/3/177 267/23/177 269/25/177 211/13/177 190/13/177
f 100/7/91 146/4/91 257/5/91 233/6/91
f 233/6/91 257/5/91 214/20/91 175/19/91
f 215/19/178 217/19/178 259/8/178 258/8/178
f 175/19/179 215/19/179 258/8/179 233/6/179
f 217/19/180 219/19/180 260/8/180 259/8/180
f 258/8/181 259/8/181 150/7/181 148/7/181
f 260/8/182 261/8/182 154/7/182 152/7/182
f 259/8/183 260/8/183 152/7/183 150/7/183
f 261/8/184 262/8/184 156/7/184 154/7/184
f 219/19/185 221/19/185 261/8/185 260/8/185
f 223/19/186 225/19/186 263/8/186 262/8/186
f 221/19/187 223/19/187 262/8/187 261/8/187
f 225/19/188 227/19/188 264/8/188 263/8/188
f 262/8/189 263/8/189 158/7/189 156/7/189
f 264/8/190 265/21/190 162/7/190 160/7/190
f 263/8/191 264/8/191 160/7/191 158/7/191
f 265/21/192 266/8/192 164/7/192 162/7/192
f 227/19/193 229/19/193 265/21/193 264/8/193
f 164/7/108 266/8/108 231/19/108 70/22/108
f 229/19/194 231/19/194 266/8/194 265/21/194
f 267/23/110 270/25/110 269/25/110
f 270/25/110 268/15/110 269/25/110
f 267/23/195 171/1/195 172/1/195 270/25/195
f 270/25/196 172/1/196 170/1/196 268/24/196
f 269/25/197 268/3/197 247/3/197 192/13/197 211/13/197
